<?xml version="1.0" encoding="UTF-8"?>
<svg width="100px" height="60px" viewBox="0 0 100 60" version="1.1" xmlns="http://www.w3.org/2000/svg" xmlns:xlink="http://www.w3.org/1999/xlink">
    <!-- Generator: Sketch 42 (36781) - http://www.bohemiancoding.com/sketch -->
    <title>bg_bq</title>
    <desc>Created with Sketch.</desc>
    <defs></defs>
    <g id="页面整合" stroke="none" stroke-width="1" fill="none" fill-rule="evenodd">
        <g id="Artboard-3" transform="translate(-62.000000, -124.000000)">
            <g id="bg_bq" transform="translate(62.000000, 124.000000)">
                <rect id="Rectangle-50" fill="#7CA9D5" x="0" y="0" width="100" height="60" rx="4"></rect>
                <g id="Group">
                    <path d="M0,4.00002553 C0,1.79087243 1.79642476,0 4.00002553,0 L40,0 L0,40 L0,4.00002553 Z" id="Rectangle-50-Copy" fill="#1A8CDC"></path>
                    <path d="M4.04144473,12.2828347 C5.08051242,10.8609526 5.84612976,9.27503093 6.33831973,7.52502218 L7.29925723,7.70080343 C7.11566256,8.30236894 6.90863338,8.88439437 6.67816348,9.44689718 L12.4555072,9.44689718 L12.4555072,10.2672097 L8.18988223,10.2672097 L8.18988223,12.3179909 L11.9867572,12.3179909 L11.9867572,13.1383034 L8.18988223,13.1383034 L8.18988223,15.2711159 L12.139101,15.2711159 L12.139101,16.0914284 L8.18988223,16.0914284 L8.18988223,19.0445534 L7.27581973,19.0445534 L7.27581973,10.2672097 L6.3207416,10.2672097 C5.87933314,11.2203394 5.36566641,12.1148618 4.77972598,12.9508034 C4.56097488,12.7398649 4.31488359,12.5172109 4.04144473,12.2828347 Z M0.783632225,13.3609597 C1.88520023,11.728139 2.75628527,9.7945646 3.39691348,7.56017843 L4.35785098,7.84142843 C4.05706822,8.76330804 3.73675892,9.62853376 3.39691348,10.4371316 L3.39691348,19.0445534 L2.48285098,19.0445534 L2.48285098,12.3472878 C2.08831775,13.0855727 1.67035318,13.7593941 1.22894473,14.3687722 C1.11175664,14.0718957 0.963320624,13.7359616 0.783632225,13.3609597 Z M14.6117572,8.04064718 L22.6976947,8.04064718 L22.6976947,12.6812722 L21.7601947,12.6812722 L21.7601947,12.3062722 L15.5492572,12.3062722 L15.5492572,12.6812722 L14.6117572,12.6812722 L14.6117572,8.04064718 Z M19.3812885,13.6422097 L23.857851,13.6422097 L23.857851,19.0562722 L22.967226,19.0562722 L22.967226,18.2593972 L20.2719135,18.2593972 L20.2719135,19.0562722 L19.3812885,19.0562722 L19.3812885,13.6422097 Z M13.4633197,13.6422097 L17.9281635,13.6422097 L17.9281635,19.0562722 L17.0375385,19.0562722 L17.0375385,18.2711159 L14.3539447,18.2711159 L14.3539447,19.0562722 L13.4633197,19.0562722 L13.4633197,13.6422097 Z M21.7601947,8.86095968 L15.5492572,8.86095968 L15.5492572,11.4859597 L21.7601947,11.4859597 L21.7601947,8.86095968 Z M22.967226,14.4625222 L20.2719135,14.4625222 L20.2719135,17.4976784 L22.967226,17.4976784 L22.967226,14.4625222 Z M17.0375385,14.4625222 L14.3539447,14.4625222 L14.3539447,17.4742409 L17.0375385,17.4742409 L17.0375385,14.4625222 Z" id="作品" fill="#FFFFFF" transform="translate(12.320742, 13.290647) rotate(-45.000000) translate(-12.320742, -13.290647) "></path>
                </g>
            </g>
        </g>
    </g>
</svg>